<mxfile host="app.diagrams.net" modified="2023-09-25T08:28:50.026Z" agent="Mozilla/5.0 (Windows NT 10.0; Win64; x64) AppleWebKit/537.36 (KHTML, like Gecko) Chrome/116.0.0.0 Safari/537.36" etag="jyOqtjcEOLZ2fJPgp_HA" version="21.8.1" type="device">
  <diagram name="Halaman-1" id="Z78un8243xYDN3_r_VRY">
    <mxGraphModel dx="880" dy="478" grid="1" gridSize="10" guides="1" tooltips="1" connect="1" arrows="1" fold="1" page="1" pageScale="1" pageWidth="827" pageHeight="1169" math="0" shadow="0">
      <root>
        <mxCell id="0" />
        <mxCell id="1" parent="0" />
        <mxCell id="Cs9WFkUSYF4TvCwis6wH-1" value="main" style="strokeWidth=2;html=1;shape=mxgraph.flowchart.terminator;whiteSpace=wrap;" parent="1" vertex="1">
          <mxGeometry x="330" y="65" width="100" height="60" as="geometry" />
        </mxCell>
        <mxCell id="Cs9WFkUSYF4TvCwis6wH-2" value="" style="endArrow=classic;html=1;rounded=0;exitX=0.5;exitY=1;exitDx=0;exitDy=0;exitPerimeter=0;" parent="1" source="Cs9WFkUSYF4TvCwis6wH-1" target="Cs9WFkUSYF4TvCwis6wH-3" edge="1">
          <mxGeometry width="50" height="50" relative="1" as="geometry">
            <mxPoint x="360" y="295" as="sourcePoint" />
            <mxPoint x="380" y="175" as="targetPoint" />
          </mxGeometry>
        </mxCell>
        <mxCell id="Cs9WFkUSYF4TvCwis6wH-3" value="string x[12]" style="shape=internalStorage;whiteSpace=wrap;html=1;dx=15;dy=15;rounded=1;arcSize=8;strokeWidth=2;" parent="1" vertex="1">
          <mxGeometry x="161.25" y="175" width="437.5" height="70" as="geometry" />
        </mxCell>
        <mxCell id="Cs9WFkUSYF4TvCwis6wH-4" value="input x[0], x[1], x[2]" style="shape=parallelogram;html=1;strokeWidth=2;perimeter=parallelogramPerimeter;whiteSpace=wrap;rounded=1;arcSize=12;size=0.23;" parent="1" vertex="1">
          <mxGeometry x="170" y="275" width="420" height="60" as="geometry" />
        </mxCell>
        <mxCell id="Cs9WFkUSYF4TvCwis6wH-5" value="input x[3], x[4], x[5]" style="shape=parallelogram;html=1;strokeWidth=2;perimeter=parallelogramPerimeter;whiteSpace=wrap;rounded=1;arcSize=12;size=0.23;" parent="1" vertex="1">
          <mxGeometry x="170" y="365" width="420" height="60" as="geometry" />
        </mxCell>
        <mxCell id="Cs9WFkUSYF4TvCwis6wH-6" value="input x[6], x[7], x[8]" style="shape=parallelogram;html=1;strokeWidth=2;perimeter=parallelogramPerimeter;whiteSpace=wrap;rounded=1;arcSize=12;size=0.23;" parent="1" vertex="1">
          <mxGeometry x="170" y="455" width="420" height="60" as="geometry" />
        </mxCell>
        <mxCell id="Cs9WFkUSYF4TvCwis6wH-7" value="input x[9], x[10], x[11]" style="shape=parallelogram;html=1;strokeWidth=2;perimeter=parallelogramPerimeter;whiteSpace=wrap;rounded=1;arcSize=12;size=0.23;" parent="1" vertex="1">
          <mxGeometry x="170" y="545" width="420" height="60" as="geometry" />
        </mxCell>
        <mxCell id="Cs9WFkUSYF4TvCwis6wH-8" value="output x[0], &quot; &quot; x[3], &quot; &quot; x[6], &quot; &quot; x[9]" style="shape=parallelogram;html=1;strokeWidth=2;perimeter=parallelogramPerimeter;whiteSpace=wrap;rounded=1;arcSize=12;size=0.23;" parent="1" vertex="1">
          <mxGeometry x="150" y="629.5" width="460" height="60" as="geometry" />
        </mxCell>
        <mxCell id="Cs9WFkUSYF4TvCwis6wH-11" value="end" style="strokeWidth=2;html=1;shape=mxgraph.flowchart.terminator;whiteSpace=wrap;" parent="1" vertex="1">
          <mxGeometry x="330" y="905" width="100" height="60" as="geometry" />
        </mxCell>
        <mxCell id="Cs9WFkUSYF4TvCwis6wH-12" value="" style="endArrow=classic;html=1;rounded=0;exitX=0.5;exitY=1;exitDx=0;exitDy=0;entryX=0.5;entryY=0;entryDx=0;entryDy=0;" parent="1" source="Cs9WFkUSYF4TvCwis6wH-3" target="Cs9WFkUSYF4TvCwis6wH-4" edge="1">
          <mxGeometry width="50" height="50" relative="1" as="geometry">
            <mxPoint x="350" y="315" as="sourcePoint" />
            <mxPoint x="400" y="265" as="targetPoint" />
          </mxGeometry>
        </mxCell>
        <mxCell id="Cs9WFkUSYF4TvCwis6wH-13" value="" style="endArrow=classic;html=1;rounded=0;exitX=0.5;exitY=1;exitDx=0;exitDy=0;entryX=0.5;entryY=0;entryDx=0;entryDy=0;" parent="1" source="Cs9WFkUSYF4TvCwis6wH-4" target="Cs9WFkUSYF4TvCwis6wH-5" edge="1">
          <mxGeometry width="50" height="50" relative="1" as="geometry">
            <mxPoint x="350" y="315" as="sourcePoint" />
            <mxPoint x="400" y="265" as="targetPoint" />
          </mxGeometry>
        </mxCell>
        <mxCell id="Cs9WFkUSYF4TvCwis6wH-14" value="" style="endArrow=classic;html=1;rounded=0;exitX=0.481;exitY=1.053;exitDx=0;exitDy=0;exitPerimeter=0;entryX=0.478;entryY=0.041;entryDx=0;entryDy=0;entryPerimeter=0;" parent="1" source="Cs9WFkUSYF4TvCwis6wH-5" target="Cs9WFkUSYF4TvCwis6wH-6" edge="1">
          <mxGeometry width="50" height="50" relative="1" as="geometry">
            <mxPoint x="370" y="445" as="sourcePoint" />
            <mxPoint x="400" y="505" as="targetPoint" />
          </mxGeometry>
        </mxCell>
        <mxCell id="Cs9WFkUSYF4TvCwis6wH-15" value="" style="endArrow=classic;html=1;rounded=0;exitX=0.5;exitY=1;exitDx=0;exitDy=0;entryX=0.5;entryY=0;entryDx=0;entryDy=0;" parent="1" source="Cs9WFkUSYF4TvCwis6wH-6" target="Cs9WFkUSYF4TvCwis6wH-7" edge="1">
          <mxGeometry width="50" height="50" relative="1" as="geometry">
            <mxPoint x="350" y="555" as="sourcePoint" />
            <mxPoint x="400" y="505" as="targetPoint" />
          </mxGeometry>
        </mxCell>
        <mxCell id="Cs9WFkUSYF4TvCwis6wH-16" value="" style="endArrow=classic;html=1;rounded=0;exitX=0.5;exitY=1;exitDx=0;exitDy=0;entryX=0.5;entryY=0;entryDx=0;entryDy=0;" parent="1" source="Cs9WFkUSYF4TvCwis6wH-7" target="Cs9WFkUSYF4TvCwis6wH-8" edge="1">
          <mxGeometry width="50" height="50" relative="1" as="geometry">
            <mxPoint x="350" y="555" as="sourcePoint" />
            <mxPoint x="400" y="505" as="targetPoint" />
          </mxGeometry>
        </mxCell>
        <mxCell id="Cs9WFkUSYF4TvCwis6wH-17" value="" style="endArrow=classic;html=1;rounded=0;exitX=0.5;exitY=1;exitDx=0;exitDy=0;" parent="1" source="Cs9WFkUSYF4TvCwis6wH-8" edge="1">
          <mxGeometry width="50" height="50" relative="1" as="geometry">
            <mxPoint x="350" y="845" as="sourcePoint" />
            <mxPoint x="380" y="715" as="targetPoint" />
          </mxGeometry>
        </mxCell>
        <mxCell id="Cs9WFkUSYF4TvCwis6wH-18" value="" style="endArrow=classic;html=1;rounded=0;exitX=0.5;exitY=1;exitDx=0;exitDy=0;entryX=0.5;entryY=0;entryDx=0;entryDy=0;" parent="1" edge="1">
          <mxGeometry width="50" height="50" relative="1" as="geometry">
            <mxPoint x="380" y="775" as="sourcePoint" />
            <mxPoint x="380" y="805" as="targetPoint" />
          </mxGeometry>
        </mxCell>
        <mxCell id="6frz8dVWHA11MIjqz-hL-1" value="output x[1], &quot; &quot; x[4], &quot; &quot; x[7], &quot; &quot; x[10]" style="shape=parallelogram;html=1;strokeWidth=2;perimeter=parallelogramPerimeter;whiteSpace=wrap;rounded=1;arcSize=12;size=0.23;" vertex="1" parent="1">
          <mxGeometry x="150" y="715" width="460" height="60" as="geometry" />
        </mxCell>
        <mxCell id="6frz8dVWHA11MIjqz-hL-4" value="" style="edgeStyle=orthogonalEdgeStyle;rounded=0;orthogonalLoop=1;jettySize=auto;html=1;" edge="1" parent="1" source="6frz8dVWHA11MIjqz-hL-2" target="Cs9WFkUSYF4TvCwis6wH-11">
          <mxGeometry relative="1" as="geometry" />
        </mxCell>
        <mxCell id="6frz8dVWHA11MIjqz-hL-2" value="output x[2], &quot; &quot; x[5], &quot; &quot; x[8], &quot; &quot; x[11]" style="shape=parallelogram;html=1;strokeWidth=2;perimeter=parallelogramPerimeter;whiteSpace=wrap;rounded=1;arcSize=12;size=0.23;" vertex="1" parent="1">
          <mxGeometry x="150" y="805" width="460" height="60" as="geometry" />
        </mxCell>
        <mxCell id="6frz8dVWHA11MIjqz-hL-6" value="TEMPAT DUDUK TEMAN" style="text;html=1;strokeColor=none;fillColor=none;align=center;verticalAlign=middle;whiteSpace=wrap;rounded=0;" vertex="1" parent="1">
          <mxGeometry x="305" y="20" width="150" height="30" as="geometry" />
        </mxCell>
      </root>
    </mxGraphModel>
  </diagram>
</mxfile>
